<svg width="32" height="32" viewBox="0 0 32 32" fill="none" xmlns="http://www.w3.org/2000/svg">
<path fill-rule="evenodd" clip-rule="evenodd" d="M17.3623 21C17.1003 21 16.8393 20.898 16.6433 20.695L12.7803 16.695C12.4023 16.302 12.4073 15.679 12.7933 15.293L16.7933 11.293C17.1833 10.902 17.8163 10.902 18.2073 11.293C18.5973 11.684 18.5973 12.316 18.2073 12.707L14.9023 16.012L18.0813 19.305C18.4653 19.703 18.4543 20.336 18.0573 20.719C17.8623 20.907 17.6123 21 17.3623 21" fill="#151A30"/>
<mask id="mask0_1_192" style="mask-type:alpha" maskUnits="userSpaceOnUse" x="12" y="10" width="7" height="11">
<path fill-rule="evenodd" clip-rule="evenodd" d="M17.3623 21C17.1003 21 16.8393 20.898 16.6433 20.695L12.7803 16.695C12.4023 16.302 12.4073 15.679 12.7933 15.293L16.7933 11.293C17.1833 10.902 17.8163 10.902 18.2073 11.293C18.5973 11.684 18.5973 12.316 18.2073 12.707L14.9023 16.012L18.0813 19.305C18.4653 19.703 18.4543 20.336 18.0573 20.719C17.8623 20.907 17.6123 21 17.3623 21" fill="white"/>
</mask>
<g mask="url(#mask0_1_192)">
</g>
</svg>
