<svg width="32" height="32" viewBox="0 0 32 32" fill="none" xmlns="http://www.w3.org/2000/svg">
<path fill-rule="evenodd" clip-rule="evenodd" d="M17.6496 16.0001L22.6579 10.9918C23.114 10.5356 23.114 9.79828 22.6579 9.34212C22.2017 8.88596 21.4644 8.88596 21.0083 9.34212L16 14.3505L10.9917 9.34212C10.5356 8.88596 9.79826 8.88596 9.34211 9.34212C8.88596 9.79828 8.88596 10.5356 9.34211 10.9918L14.3504 16.0001L9.34211 21.0085C8.88596 21.4647 8.88596 22.202 9.34211 22.6582C9.5696 22.8857 9.86826 23 10.1669 23C10.4656 23 10.7642 22.8857 10.9917 22.6582L16 17.6498L21.0083 22.6582C21.2358 22.8857 21.5344 23 21.8331 23C22.1317 23 22.4304 22.8857 22.6579 22.6582C23.114 22.202 23.114 21.4647 22.6579 21.0085L17.6496 16.0001Z" fill="#57627B"/>
<mask id="mask0_1_261" style="mask-type:alpha" maskUnits="userSpaceOnUse" x="9" y="9" width="14" height="14">
<path fill-rule="evenodd" clip-rule="evenodd" d="M17.6496 16.0001L22.6579 10.9918C23.114 10.5356 23.114 9.79828 22.6579 9.34212C22.2017 8.88596 21.4644 8.88596 21.0083 9.34212L16 14.3505L10.9917 9.34212C10.5356 8.88596 9.79826 8.88596 9.34211 9.34212C8.88596 9.79828 8.88596 10.5356 9.34211 10.9918L14.3504 16.0001L9.34211 21.0085C8.88596 21.4647 8.88596 22.202 9.34211 22.6582C9.5696 22.8857 9.86826 23 10.1669 23C10.4656 23 10.7642 22.8857 10.9917 22.6582L16 17.6498L21.0083 22.6582C21.2358 22.8857 21.5344 23 21.8331 23C22.1317 23 22.4304 22.8857 22.6579 22.6582C23.114 22.202 23.114 21.4647 22.6579 21.0085L17.6496 16.0001Z" fill="white"/>
</mask>
<g mask="url(#mask0_1_261)">
</g>
</svg>
