<svg width="48" height="48" viewBox="0 0 48 48" fill="none" xmlns="http://www.w3.org/2000/svg">
<rect width="48" height="48" rx="8" fill="#F7F9FC"/>
<path fill-rule="evenodd" clip-rule="evenodd" d="M15.8856 14.6667H31.8803C34.5189 14.6667 36.6669 16.7773 36.6669 19.372V22.6667C36.6669 23.404 36.0709 24 35.3336 24C34.5963 24 34.0003 23.404 34.0003 22.6667V19.372C34.0003 18.2493 33.0496 17.3333 31.8803 17.3333H15.8856L17.6096 19.0573C18.1296 19.5787 18.1296 20.4213 17.6096 20.9427C17.3496 21.2027 17.0083 21.3333 16.6669 21.3333C16.3256 21.3333 15.9843 21.2027 15.7243 20.9427L11.7243 16.9427C11.2029 16.4213 11.2029 15.5787 11.7243 15.0573L15.7243 11.0573C16.2443 10.536 17.0883 10.536 17.6096 11.0573C18.1296 11.5787 18.1296 12.4213 17.6096 12.9427L15.8856 14.6667ZM30.3907 27.0573C30.912 26.536 31.7547 26.536 32.276 27.0573L36.276 31.0573C36.7973 31.5787 36.7973 32.4213 36.276 32.9427L32.276 36.9427C32.016 37.2027 31.6747 37.3333 31.3333 37.3333C30.992 37.3333 30.6507 37.2027 30.3907 36.9427C29.8693 36.4213 29.8693 35.5787 30.3907 35.0573L32.1147 33.3333H16.12C13.48 33.3333 11.3333 31.2227 11.3333 28.628V25.3333C11.3333 24.596 11.9307 24 12.6667 24C13.4027 24 14 24.596 14 25.3333V28.628C14 29.752 14.9507 30.6667 16.12 30.6667H32.1147L30.3907 28.9427C29.8693 28.4213 29.8693 27.5787 30.3907 27.0573Z" fill="url(#paint0_linear_1_183)"/>
<mask id="mask0_1_183" style="mask-type:alpha" maskUnits="userSpaceOnUse" x="11" y="10" width="26" height="28">
<path fill-rule="evenodd" clip-rule="evenodd" d="M15.8856 14.6667H31.8803C34.5189 14.6667 36.6669 16.7773 36.6669 19.372V22.6667C36.6669 23.404 36.0709 24 35.3336 24C34.5963 24 34.0003 23.404 34.0003 22.6667V19.372C34.0003 18.2493 33.0496 17.3333 31.8803 17.3333H15.8856L17.6096 19.0573C18.1296 19.5787 18.1296 20.4213 17.6096 20.9427C17.3496 21.2027 17.0083 21.3333 16.6669 21.3333C16.3256 21.3333 15.9843 21.2027 15.7243 20.9427L11.7243 16.9427C11.2029 16.4213 11.2029 15.5787 11.7243 15.0573L15.7243 11.0573C16.2443 10.536 17.0883 10.536 17.6096 11.0573C18.1296 11.5787 18.1296 12.4213 17.6096 12.9427L15.8856 14.6667ZM30.3907 27.0573C30.912 26.536 31.7547 26.536 32.276 27.0573L36.276 31.0573C36.7973 31.5787 36.7973 32.4213 36.276 32.9427L32.276 36.9427C32.016 37.2027 31.6747 37.3333 31.3333 37.3333C30.992 37.3333 30.6507 37.2027 30.3907 36.9427C29.8693 36.4213 29.8693 35.5787 30.3907 35.0573L32.1147 33.3333H16.12C13.48 33.3333 11.3333 31.2227 11.3333 28.628V25.3333C11.3333 24.596 11.9307 24 12.6667 24C13.4027 24 14 24.596 14 25.3333V28.628C14 29.752 14.9507 30.6667 16.12 30.6667H32.1147L30.3907 28.9427C29.8693 28.4213 29.8693 27.5787 30.3907 27.0573Z" fill="white"/>
</mask>
<g mask="url(#mask0_1_183)">
</g>
<defs>
<linearGradient id="paint0_linear_1_183" x1="36.667" y1="10.6663" x2="6.75789" y2="17.6016" gradientUnits="userSpaceOnUse">
<stop stop-color="#1C94F4"/>
<stop offset="1" stop-color="#1273EA"/>
</linearGradient>
</defs>
</svg>
