<svg width="344" height="213" viewBox="0 0 344 213" fill="none" xmlns="http://www.w3.org/2000/svg">
<g filter="url(#filter0_d_10_393)">
<path fill-rule="evenodd" clip-rule="evenodd" d="M328 148.806C328 149.48 333.201 154.612 334 154.612C334.799 154.612 340 149.48 340 148.806C340 148.132 334.799 143 334 143C333.201 143 328 148.132 328 148.806" fill="#E9F5FE"/>
<path fill-rule="evenodd" clip-rule="evenodd" d="M86 5.80579C86 6.47992 91.2012 11.6122 92 11.6122C92.7988 11.6122 98 6.47992 98 5.80579C98 5.13223 92.7988 0 92 0C91.2012 0 86 5.13223 86 5.80579" fill="#E9F5FE"/>
<path fill-rule="evenodd" clip-rule="evenodd" d="M44 166.806C44 167.48 49.2012 172.612 50 172.612C50.7988 172.612 56 167.48 56 166.806C56 166.132 50.7988 161 50 161C49.2012 161 44 166.132 44 166.806" fill="#E9F5FE"/>
<path fill-rule="evenodd" clip-rule="evenodd" d="M4 43.8058C4 44.4799 9.20124 49.6122 10 49.6122C10.7988 49.6122 16 44.4799 16 43.8058C16 43.1322 10.7988 38 10 38C9.20124 38 4 43.1322 4 43.8058" fill="#FBEBFF"/>
<path fill-rule="evenodd" clip-rule="evenodd" d="M70 116.903C70 117.24 72.6006 119.806 73 119.806C73.3994 119.806 76 117.24 76 116.903C76 116.566 73.3994 114 73 114C72.6006 114 70 116.566 70 116.903" fill="#FFC729"/>
<path fill-rule="evenodd" clip-rule="evenodd" d="M286 36.9029C286 37.24 288.601 39.8061 289 39.8061C289.399 39.8061 292 37.24 292 36.9029C292 36.5661 289.399 34 289 34C288.601 34 286 36.5661 286 36.9029" fill="#EC9FFF"/>
<path fill-rule="evenodd" clip-rule="evenodd" d="M282 199.838C282 200.4 286.334 204.677 287 204.677C287.666 204.677 292 200.4 292 199.838C292 199.277 287.666 195 287 195C286.334 195 282 199.277 282 199.838" fill="#EC9FFF"/>
<path fill-rule="evenodd" clip-rule="evenodd" d="M242 4.83816C242 5.39994 246.334 9.6768 247 9.6768C247.666 9.6768 252 5.39994 252 4.83816C252 4.27686 247.666 0 247 0C246.334 0 242 4.27686 242 4.83816" fill="#FFC729"/>
<path fill-rule="evenodd" clip-rule="evenodd" d="M127.861 34H216.173C223.018 34 228.567 39.5493 228.567 46.3946V143.379C228.567 148.046 226.464 152.464 222.841 155.406L177.877 191.92C174.462 194.693 169.572 194.693 166.157 191.92L121.193 155.406C117.57 152.464 115.467 148.046 115.467 143.379V46.3946C115.467 39.5493 121.016 34 127.861 34Z" fill="#1273EA"/>
<path fill-rule="evenodd" clip-rule="evenodd" d="M200.68 52.5919C205.814 52.5919 209.975 56.7539 209.975 61.8879V91.8724L209.973 92.1177C209.844 98.2328 204.912 103.166 198.797 103.297L198.548 103.299L198.794 103.302C204.909 103.431 209.842 108.363 209.973 114.478L209.975 114.727V133.483C209.975 136.151 208.829 138.691 206.827 140.456L183.476 161.044L183.476 119.023C183.476 113.889 179.314 109.727 174.18 109.727H160.558L160.557 161.044L137.207 140.456C135.205 138.691 134.059 136.151 134.059 133.483V61.8879C134.059 56.7539 138.221 52.5919 143.355 52.5919H200.68ZM183.476 65.4474H160.558V94.015H174.18C179.314 94.015 183.476 89.8531 183.476 84.719V65.4474Z" fill="white"/>
</g>
<defs>
<filter id="filter0_d_10_393" x="0" y="0" width="344" height="212.677" filterUnits="userSpaceOnUse" color-interpolation-filters="sRGB">
<feFlood flood-opacity="0" result="BackgroundImageFix"/>
<feColorMatrix in="SourceAlpha" type="matrix" values="0 0 0 0 0 0 0 0 0 0 0 0 0 0 0 0 0 0 127 0" result="hardAlpha"/>
<feOffset dy="4"/>
<feGaussianBlur stdDeviation="2"/>
<feComposite in2="hardAlpha" operator="out"/>
<feColorMatrix type="matrix" values="0 0 0 0 0 0 0 0 0 0 0 0 0 0 0 0 0 0 0.25 0"/>
<feBlend mode="normal" in2="BackgroundImageFix" result="effect1_dropShadow_10_393"/>
<feBlend mode="normal" in="SourceGraphic" in2="effect1_dropShadow_10_393" result="shape"/>
</filter>
</defs>
</svg>
