<svg width="48" height="48" viewBox="0 0 48 48" fill="none" xmlns="http://www.w3.org/2000/svg">
<rect width="48" height="48" rx="8" fill="#F7F9FC"/>
<path d="M35.3225 12.6984C34.7222 12.0823 33.8338 11.8528 33.0055 12.0944L13.6896 17.7114C12.8156 17.9542 12.1962 18.6512 12.0293 19.5367C11.8588 20.4378 12.4543 21.5817 13.2322 22.0601L19.2719 25.7722C19.8913 26.1527 20.6909 26.0573 21.2035 25.5402L28.1195 18.5812C28.4676 18.2188 29.0439 18.2188 29.392 18.5812C29.7402 18.9315 29.7402 19.4992 29.392 19.8616L22.464 26.8219C21.9502 27.3377 21.8541 28.141 22.2323 28.7643L25.9226 34.8645C26.3548 35.5893 27.0991 36 27.9154 36C28.0115 36 28.1195 36 28.2155 35.9879C29.1519 35.8671 29.8962 35.2269 30.1723 34.3209L35.8987 15.0297C36.1508 14.2083 35.9227 13.3144 35.3225 12.6984" fill="url(#paint0_linear_1_179)"/>
<defs>
<linearGradient id="paint0_linear_1_179" x1="36" y1="12" x2="7.82082" y2="18.8781" gradientUnits="userSpaceOnUse">
<stop stop-color="#1C94F4"/>
<stop offset="1" stop-color="#1273EA"/>
</linearGradient>
</defs>
</svg>
