<svg width="41" height="20" viewBox="0 0 41 20" fill="none" xmlns="http://www.w3.org/2000/svg">
<rect width="41" height="20" rx="8" fill="#EEF3FB"/>
<path d="M8.6321 6.72727V14H10.1236V9.24858H10.1839L12.0661 13.9645H13.0817L14.9638 9.26634H15.0241V14H16.5156V6.72727H14.6193L12.6165 11.6136H12.5312L10.5284 6.72727H8.6321ZM19.536 14L20.0758 12.3416H22.7001L23.2399 14H24.8876L22.3805 6.72727H20.399L17.8883 14H19.536ZM20.4664 11.1413L21.3613 8.3892H21.4181L22.313 11.1413H20.4664ZM27.7047 6.72727H25.9611L28.1948 10.3636L25.9185 14H27.6799L29.1713 11.5178H29.2282L30.7196 14H32.4881L30.2189 10.3636L32.4384 6.72727H30.7019L29.2282 9.20597H29.1713L27.7047 6.72727Z" fill="#57627B"/>
</svg>
