<svg width="48" height="48" viewBox="0 0 48 48" fill="none" xmlns="http://www.w3.org/2000/svg">
<rect width="48" height="48" rx="8" fill="#F7F9FC"/>
<path fill-rule="evenodd" clip-rule="evenodd" d="M34.6667 20H13.3333V18.6667C13.3333 17.932 13.9307 17.3333 14.6667 17.3333H33.3333C34.0693 17.3333 34.6667 17.932 34.6667 18.6667V20ZM30.6667 28H28C27.2667 28 26.6667 27.4 26.6667 26.6667C26.6667 25.9333 27.2667 25.3333 28 25.3333H30.6667C31.4 25.3333 32 25.9333 32 26.6667C32 27.4 31.4 28 30.6667 28V28ZM22.6667 28H17.3333C16.6 28 16 27.4 16 26.6667C16 25.9333 16.6 25.3333 17.3333 25.3333H22.6667C23.4 25.3333 24 25.9333 24 26.6667C24 27.4 23.4 28 22.6667 28V28ZM33.3333 14.6667H14.6667C12.4613 14.6667 10.6667 16.4613 10.6667 18.6667V29.3333C10.6667 31.5387 12.4613 33.3333 14.6667 33.3333H33.3333C35.5387 33.3333 37.3333 31.5387 37.3333 29.3333V18.6667C37.3333 16.4613 35.5387 14.6667 33.3333 14.6667V14.6667Z" fill="url(#paint0_linear_1_187)"/>
<mask id="mask0_1_187" style="mask-type:alpha" maskUnits="userSpaceOnUse" x="10" y="14" width="28" height="20">
<path fill-rule="evenodd" clip-rule="evenodd" d="M34.6667 20H13.3333V18.6667C13.3333 17.932 13.9307 17.3333 14.6667 17.3333H33.3333C34.0693 17.3333 34.6667 17.932 34.6667 18.6667V20ZM30.6667 28H28C27.2667 28 26.6667 27.4 26.6667 26.6667C26.6667 25.9333 27.2667 25.3333 28 25.3333H30.6667C31.4 25.3333 32 25.9333 32 26.6667C32 27.4 31.4 28 30.6667 28V28ZM22.6667 28H17.3333C16.6 28 16 27.4 16 26.6667C16 25.9333 16.6 25.3333 17.3333 25.3333H22.6667C23.4 25.3333 24 25.9333 24 26.6667C24 27.4 23.4 28 22.6667 28V28ZM33.3333 14.6667H14.6667C12.4613 14.6667 10.6667 16.4613 10.6667 18.6667V29.3333C10.6667 31.5387 12.4613 33.3333 14.6667 33.3333H33.3333C35.5387 33.3333 37.3333 31.5387 37.3333 29.3333V18.6667C37.3333 16.4613 35.5387 14.6667 33.3333 14.6667V14.6667Z" fill="white"/>
</mask>
<g mask="url(#mask0_1_187)">
</g>
<defs>
<linearGradient id="paint0_linear_1_187" x1="37.3333" y1="14.6667" x2="7.75416" y2="24.9806" gradientUnits="userSpaceOnUse">
<stop stop-color="#1C94F4"/>
<stop offset="1" stop-color="#1273EA"/>
</linearGradient>
</defs>
</svg>
